<?xml version="1.0" encoding="utf-8"?>
<!-- Generator: Adobe Illustrator 16.0.0, SVG Export Plug-In . SVG Version: 6.00 Build 0)  -->
<!DOCTYPE svg PUBLIC "-//W3C//DTD SVG 1.1//EN" "http://www.w3.org/Graphics/SVG/1.1/DTD/svg11.dtd">
<svg version="1.1" id="Layer_1" xmlns="http://www.w3.org/2000/svg" xmlns:xlink="http://www.w3.org/1999/xlink" x="0px" y="0px"
	 width="38.4px" height="38.4px" viewBox="0 0 38.4 38.4" enable-background="new 0 0 38.4 38.4" xml:space="preserve">
<path fill-rule="evenodd" clip-rule="evenodd" fill="#597EBF" d="M5.669,0H32.73c3.118,0,5.67,2.551,5.67,5.669V32.73
	c0,3.118-2.552,5.669-5.67,5.669H5.669C2.551,38.4,0,35.849,0,32.73V5.669C0,2.551,2.551,0,5.669,0z"/>
<path fill-rule="evenodd" clip-rule="evenodd" fill="#FFFFFF" d="M5.027,4.904h13.115v13.114H5.027V4.904L5.027,4.904z M7.017,6.894
	v9.09h9.09v-9.09H7.017z"/>
<path fill-rule="evenodd" clip-rule="evenodd" fill="#FFFFFF" d="M20.259,4.904h13.114v13.114H20.259V4.904L20.259,4.904z
	 M22.249,6.894v9.09h9.09v-9.09H22.249z"/>
<path fill-rule="evenodd" clip-rule="evenodd" fill="#FFFFFF" d="M5.027,20.098h13.115v13.115H5.027V20.098L5.027,20.098z
	 M7.017,22.088v9.09h9.09v-9.09H7.017z"/>
<path fill-rule="evenodd" clip-rule="evenodd" fill="#FFFFFF" d="M26.816,25.768c1.562,0,2.835-1.273,2.835-2.835
	c0-1.561-1.273-2.834-2.835-2.834s-2.835,1.273-2.835,2.834C23.981,24.494,25.255,25.768,26.816,25.768z"/>
<path fill-rule="evenodd" clip-rule="evenodd" fill="#EF3824" d="M26.982,27.543h2.423c1.565,0,2.834,1.269,2.834,2.834
	c0,1.566-1.269,2.835-2.834,2.835h-2.423c1.073-0.493,1.818-1.577,1.818-2.835C28.801,29.12,28.056,28.036,26.982,27.543z"/>
<path fill-rule="evenodd" clip-rule="evenodd" fill="#58B947" d="M24.228,27.543h2.423c-1.073,0.493-1.818,1.577-1.818,2.834
	c0,1.258,0.745,2.342,1.818,2.835h-2.423c-1.565,0-2.835-1.269-2.835-2.835C21.393,28.813,22.662,27.543,24.228,27.543z"/>
</svg>
