<?xml version="1.0" encoding="utf-8"?>
<!-- Generator: Adobe Illustrator 16.0.0, SVG Export Plug-In . SVG Version: 6.00 Build 0)  -->
<!DOCTYPE svg PUBLIC "-//W3C//DTD SVG 1.1//EN" "http://www.w3.org/Graphics/SVG/1.1/DTD/svg11.dtd">
<svg version="1.1" id="Layer_1" xmlns="http://www.w3.org/2000/svg" xmlns:xlink="http://www.w3.org/1999/xlink" x="0px" y="0px"
	 width="38.4px" height="38.4px" viewBox="0 0 38.4 38.4" enable-background="new 0 0 38.4 38.4" xml:space="preserve">
<path fill-rule="evenodd" clip-rule="evenodd" d="M5.027,5.046h13.114V18.16H5.027V5.046L5.027,5.046z M7.017,7.036v9.09h9.09v-9.09
	H7.017z"/>
<path fill-rule="evenodd" clip-rule="evenodd" d="M20.259,5.046h13.114V18.16H20.259V5.046L20.259,5.046z M22.249,7.036v9.09h9.09
	v-9.09H22.249z"/>
<path fill-rule="evenodd" clip-rule="evenodd" d="M5.027,20.24h13.114v13.115H5.027V20.24L5.027,20.24z M7.017,22.23v9.09h9.09
	v-9.09H7.017z"/>
<path fill-rule="evenodd" clip-rule="evenodd" d="M26.817,25.91c1.561,0,2.834-1.273,2.834-2.835c0-1.561-1.273-2.834-2.834-2.834
	c-1.562,0-2.834,1.273-2.834,2.834C23.982,24.636,25.255,25.91,26.817,25.91z"/>
<path fill-rule="evenodd" clip-rule="evenodd" d="M26.983,27.686h2.422c1.565,0,2.834,1.269,2.834,2.834
	c0,1.566-1.269,2.835-2.834,2.835h-2.422c1.073-0.493,1.818-1.577,1.818-2.835C28.801,29.262,28.056,28.178,26.983,27.686z"/>
<path fill-rule="evenodd" clip-rule="evenodd" d="M24.228,27.686h2.422c-1.073,0.493-1.817,1.577-1.817,2.834
	c0,1.258,0.745,2.342,1.817,2.835h-2.422c-1.565,0-2.834-1.269-2.834-2.835C21.393,28.955,22.662,27.686,24.228,27.686z"/>
</svg>
