<?xml version="1.0" encoding="utf-8"?>
<!-- Generator: Adobe Illustrator 16.0.0, SVG Export Plug-In . SVG Version: 6.00 Build 0)  -->
<!DOCTYPE svg PUBLIC "-//W3C//DTD SVG 1.1//EN" "http://www.w3.org/Graphics/SVG/1.1/DTD/svg11.dtd">
<svg version="1.1" id="Layer_1" xmlns="http://www.w3.org/2000/svg" xmlns:xlink="http://www.w3.org/1999/xlink" x="0px" y="0px"
	 width="38.4px" height="38.4px" viewBox="0 0 38.4 38.4" enable-background="new 0 0 38.4 38.4" xml:space="preserve">
<g>
	<path fill-rule="evenodd" clip-rule="evenodd" d="M9.259,6.328l-0.03,0.011c-0.01,0.076,0.01-0.012-0.007,0.057
		C9.116,6.443,9.12,6.49,9.068,6.578c-0.042,0.072-0.057,0.02-0.076,0.1C8.927,6.95,8.938,6.842,8.902,6.971
		C8.827,7.004,8.823,6.969,8.796,7.062C8.734,7.268,8.75,7.395,8.75,7.616l0,23.177c0.002,0.397-0.01,0.795,0.003,1.192
		c0.002,0.067-0.003,0.136,0.003,0.204c0.005,0.06,0.024,0.071,0.039,0.146l0.102,0.02c0.021,0.049,0.001,0.116,0.087,0.274
		l0.038,0.084c0.003,0.004,0.04,0.028,0.048,0.034l0.115,0.115c0.02,0.017,0.027,0.022,0.043,0.038l0.074,0.074
		c0.109,0.096,0.108,0.01,0.069,0.106c0.135,0.004,0.125,0.013,0.147,0.095c0.347,0.007,0.271,0.082,0.352,0.115
		c0.053,0.022,0.132,0.026,0.19,0.042c0.079,0.021,0.051,0.048,0.179,0.038l0.018-0.052c1.54-0.017,3.091,0,4.632,0
		c3.863,0,7.726,0,11.59,0c0.383,0,0.785-0.012,1.166,0.001c0.193,0.007,0.389,0.003,0.583,0.003c0.042,0,0.109,0.003,0.149-0.003
		c0.074-0.01,0.031-0.021,0.108-0.027c0.037-0.002,0.119,0.005,0.15-0.004c0.058-0.015,0.076-0.042,0.021-0.061
		c0.05-0.002,0.169-0.006,0.193-0.054c0.017-0.033,0.025-0.055,0.061-0.07c0.051-0.022,0.079-0.013,0.144-0.016
		c0.042-0.059,0.003-0.052,0.098-0.057c0.004-0.062-0.005-0.039-0.007-0.087c0.119-0.046,0.02-0.039,0.137-0.12
		c0.026-0.018,0.022-0.019,0.041-0.043c0.054-0.075,0.05-0.037,0.087-0.074c0.031-0.031,0.003-0.004,0.017-0.026
		c0.03-0.047-0.018,0.01,0.015-0.023c0.001-0.002,0.019-0.014,0.023-0.016c0.007-0.005,0.013,0.005,0.018-0.01l0.066-0.143
		c0.001-0.005,0.007-0.042,0.008-0.048c0.022-0.135,0.006-0.062,0.106-0.117c0.003-0.057,0-0.147,0.01-0.197
		c0.042-0.202,0.001-0.428,0.041-0.555c0.032-0.104,0.005-0.613,0.022-0.767c0.023-0.21,0.001-0.561,0.001-0.786
		c0-0.468,0.018-2.961-0.004-3.142c-0.012-0.102-0.019-0.257-0.006-0.378c0.016-0.145,0.002-0.235-0.001-0.376l-0.156-0.01
		c-0.002,0.003-0.003,0.008-0.004,0.011l-0.05,0.117c-0.046,0.114-0.011,0.038-0.051,0.081l-0.041,0.073
		c-0.001,0.003-0.003,0.006-0.004,0.01c-0.001,0.003-0.002,0.007-0.003,0.01c-0.005,0.022-0.004,0.022-0.005,0.044
		c-0.162,0.011-0.114,0.071-0.14,0.098c-0.023,0.011-0.056,0.015-0.075,0.026c-0.084,0.047,0.019,0.074-0.156,0.097
		c-0.002,0.003-0.004,0.008-0.005,0.012l-0.059,0.079c-0.07,0.055-0.01,0.021-0.052,0.083c-0.044,0.003-0.1-0.001-0.141,0.023
		l-0.106,0.164c-0.029,0.032-0.076,0.016-0.113,0.063c-0.035,0.043,0.019,0.014-0.043,0.037c-0.041,0.015-0.063,0.004-0.075,0.048
		L28.4,27.414c-0.019,0.169-0.006,0.69-0.006,0.885c0,0.397-0.001,0.795-0.001,1.193c0,0.237,0.027,1.599-0.022,1.769
		c-0.027,0.091-0.037,0.156-0.044,0.265c-0.006,0.095-0.044,0.142-0.045,0.244c-0.018,0.005-0.057,0.012-0.08,0.025l-0.05,0.048
		c-0.066,0.065-0.039,0.072-0.071,0.116l-0.22,0.02l-0.045,0.073c-0.007,0.012-0.02,0-0.019,0.091l-0.14,0.009l-0.027-0.079
		c-2.892,0.003-5.783,0.001-8.675,0.001c-0.223,0-7.97,0.019-8.125-0.007c-0.162-0.028-0.054-0.069-0.185-0.086
		c-0.076-0.01-0.128,0.007-0.194-0.032l-0.016-0.009c0,0-0.002-0.048-0.026-0.081c-0.002-0.002-0.005-0.005-0.007-0.007
		l-0.079-0.073c-0.055-0.029-0.052-0.104-0.083-0.154c-0.035-0.058-0.023-0.016-0.063-0.037c-0.045-0.023-0.021-0.023-0.043-0.077
		c-0.001-0.004-0.007-0.014-0.009-0.018l-0.043-0.105c-0.065-0.136-0.019-0.744-0.016-0.919c0.009-0.517,0.002-1.041,0.002-1.559
		V10.245c0-0.098,0.017-2.041-0.013-2.107c-0.031-0.069-0.025-0.135,0.002-0.203c0.013-0.033,0.005-0.01,0.012-0.045
		c0.009-0.047,0.011-0.088,0.034-0.11l0.019-0.012c0.053-0.03,0.103-0.096,0.123-0.153c0.028-0.082,0.002-0.051,0.124-0.059
		c0.035-0.09-0.015-0.029,0.046-0.087c0.042-0.04,0.029-0.005,0.038-0.084c0.059-0.004,0.08-0.017,0.137-0.019l0.447-0.002
		c0.637,0.008,4.095-0.036,4.162,0.026c0.033,0.063,0.028,0.156,0.041,0.228l0.055,0.2c0.06,0.185,0.088,0.18,0.11,0.229
		c0.012,0.026,0.001,0.028,0.013,0.055c0.011,0.023,0.039,0.035,0.083,0.042c0.001,0.014,0,0.03,0.006,0.043
		c0.039,0.091,0.194,0.011,0.26,0.084l0.013,0.016c0.028,0.024-0.018-0.003,0.028,0.016l0.051,0.015
		c0.003,0.001,0.006,0.002,0.01,0.003l0.104,0.088c0.145,0.003,0.277-0.014,0.406-0.014c2.058-0.003,4.117,0.015,6.175,0
		c0.013-0.024,0.01-0.024,0.02-0.049c0.091-0.001,0.161-0.025,0.242-0.042c0.011-0.061,0-0.024-0.003-0.067
		c0.102-0.01,0.095,0.005,0.093-0.097c0.034,0.001,0.068,0,0.102-0.002c0.165-0.012,0.066-0.101,0.146-0.211
		c0.057-0.077-0.035,0.058,0.012-0.016l0.031-0.052c0.049-0.064,0.012-0.143,0.014-0.241c0.002-0.084,0.017-0.146,0.022-0.223
		c0.104-0.033,0.132-0.033,0.263-0.031c0.691,0.011,1.383,0,2.074,0c0.783,0,1.58-0.017,2.361,0.006
		c0.009,0.088-0.019,0.064,0.048,0.091c0.012,0.005,0.083,0.017,0.1,0.019c0.01,0.074-0.017,0.06,0.043,0.081
		c0.061,0.021,0.112-0.029,0.135,0.054l0.065,0.202c0.022,0.053,0.057,0.125,0.066,0.248c0.021,0.283,0.004,0.643,0.004,0.935
		l0,12.199c-0.002,0.234,0.01,0.471-0.002,0.705c-0.002,0.033-0.029,0.207,0.021,0.223c0.002,0,0.007,0.003,0.01,0.004
		c0.004,0.001,0.13,0.03,0.161-0.032l0.014-0.026c0.028-0.047,0.039-0.109,0.089-0.125c0.018-0.005,0.046-0.01,0.073-0.014
		c0.004-0.142,0.042-0.03,0.047-0.157c0.193-0.046,0.062-0.219,0.322-0.221c0.004-0.126,0.02-0.01,0.071-0.118
		c0.03-0.063,0.004-0.063,0.102-0.075c0.001-0.041-0.002-0.037,0.009-0.074c0.031-0.105,0.034-0.063,0.105-0.121
		c0.002-0.002,0.005-0.005,0.008-0.007l0.062-0.059c0.04-0.029,0.032-0.043,0.044-0.085c0.044-0.01,0.182-0.003,0.196-0.062
		c0.031-0.137,0.013-11.914,0.013-13.025c0-0.157,0.006-0.319,0.002-0.476c-0.003-0.112-0.026-0.054-0.045-0.135
		c0-0.001-0.006-0.044-0.007-0.047l-0.021-0.101c-0.008-0.027-0.015-0.057-0.02-0.088l-0.038-0.141
		c-0.012-0.027-0.005-0.013-0.021-0.033l-0.042-0.08C29.528,6.8,29.5,6.793,29.486,6.777c-0.032-0.039-0.03-0.129-0.075-0.155
		c-0.1-0.057-0.096,0.039-0.096-0.109c-0.096-0.011-0.046,0.002-0.086-0.061c-0.023-0.037-0.05-0.048-0.103-0.05l-0.019-0.065
		c-0.077,0-0.087-0.016-0.168-0.016l-0.045-0.079c-0.003-0.002-0.016-0.007-0.02-0.009c-0.086-0.041-0.013-0.066-0.129-0.098
		L28.646,6.11c-0.002-0.001-0.005-0.004-0.008-0.005s-0.005-0.004-0.008-0.006c-0.08-0.059-0.06-0.037-0.173-0.044
		c-0.234-0.015-0.487-0.003-0.732-0.008c-1.232-0.02-2.467-0.004-3.7-0.005c-0.113,0-0.614,0.034-0.709-0.022l-0.058-0.064
		c-0.028-0.041-0.02-0.032-0.023-0.089c-0.02-0.375-0.062-0.188-0.116-0.422c-0.009-0.041-0.017-0.054-0.029-0.082
		c-0.037-0.001-0.082,0.005-0.116-0.007c-0.094-0.033-0.156-0.143-0.217-0.214c-0.016-0.018-0.008-0.014-0.03-0.025
		c-0.078-0.041-0.254-0.016-0.343-0.019l-0.021-0.061c0-0.005-0.003-0.007-0.005-0.012l-6.384,0.006l-0.062,0.054
		c-0.03,0.011-0.053,0.013-0.101,0.019c-0.116,0.013-0.097,0.034-0.143,0.104l-0.105,0.007c0.018,0.04,0.027,0.019,0.068,0.041
		c-0.022,0.013-0.065,0.017-0.094,0.025c-0.036,0.072,0.015,0.046-0.045,0.088c-0.07,0.047-0.071,0.004-0.115,0.168
		c-0.012,0.047-0.034,0.018-0.047,0.083c-0.001,0.008-0.002,0.033-0.002,0.045l-0.063,0.006c-0.001,0.138-0.021,0.063-0.033,0.141
		c-0.011,0.074,0.016,0.09-0.018,0.161c-0.031,0.063,0.006,0.022-0.045,0.051c-0.09,0.05-0.829,0.018-0.944,0.018h-2.819
		c-0.453,0-0.941-0.008-1.383,0.015c-0.01,0.022,0.004,0.013,0.01,0.05C9.979,6.114,9.865,6.121,9.811,6.132
		C9.779,6.139,9.737,6.149,9.708,6.153C9.666,6.157,9.638,6.152,9.6,6.167C9.533,6.194,9.515,6.233,9.438,6.253
		C9.325,6.283,9.387,6.307,9.259,6.328z"/>
	<path fill-rule="evenodd" clip-rule="evenodd" d="M28.045,22.702l-0.29,0.3c-0.107,0.092-0.232,0.207-0.323,0.316l-0.053,0.053
		c-0.102,0.085-0.076,0.085-0.107,0.127l-0.274,0.239c-0.04,0.043-0.101,0.111-0.137,0.138c-0.024,0.053-0.079,0.09-0.12,0.134
		c-0.043,0.046-0.07,0.076-0.115,0.116c-0.133,0.12-0.146,0.191-0.256,0.204c-0.024,0.055-0.013,0.004-0.044,0.051
		c-0.017,0.026-0.004,0.013-0.018,0.037c-0.021,0.038-0.102,0.089-0.153,0.172c-0.078,0.126-0.058,0.074-0.124,0.147
		c-0.037,0.041-0.001,0.016-0.047,0.046c-0.032,0.021-0.025,0.006-0.056,0.042c-0.012,0.014-0.028,0.035-0.042,0.052
		c-0.029,0.036-0.014,0.024-0.036,0.06c-0.033,0.054-0.107,0.064-0.186,0.18c-0.036,0.054-0.042,0.03-0.076,0.057
		c-0.047,0.038,0.005,0.04-0.07,0.078c-0.113,0.059-0.034,0.042-0.104,0.087c-0.167,0.109-0.026,0.063-0.171,0.195l-0.035,0.034
		c-0.001,0.002-0.003,0.006-0.005,0.008l-0.028,0.038c-0.042,0.037-0.026,0.002-0.063,0.061c-0.061,0.099-0.048,0.023-0.109,0.08
		c-0.068,0.064,0.029,0.016-0.092,0.08c-0.058,0.05-0.1,0.102-0.151,0.15c-0.031,0.029-0.047,0.039-0.078,0.071
		c-0.029,0.03-0.049,0.055-0.092,0.066c-0.053,0.083-0.216,0.217-0.302,0.299l-0.257,0.256c-0.003,0.002-0.011,0.011-0.013,0.014
		l-0.353,0.352c-0.034,0.038-0.034,0.066-0.013,0.097l0.569,0.488c0.08,0.073,0.145,0.15,0.229,0.218
		c0.014,0.011,0.023,0.018,0.037,0.03l0.967,0.824c0.033,0.029,0.049,0.04,0.083,0.066c0.028,0.022,0.044,0.05,0.074,0.075
		l0.292,0.239c0.049,0.025,0.069,0.064,0.108,0.104c0.175,0.18,0.146,0.16,0.312,0.018c0.067-0.057,0.132-0.151,0.192-0.2
		c0.083-0.066,0.208-0.182,0.274-0.271c0.001-0.002,0.004-0.005,0.005-0.008l0.048-0.047c0.001-0.002,0.004-0.005,0.006-0.008
		l0.076-0.083c0.002-0.002,0.005-0.004,0.007-0.006l0.315-0.311c0.003-0.003,0.011-0.01,0.014-0.012l0.089-0.074
		c0.039-0.034,0.038-0.032,0.069-0.067c0.021-0.023,0.009-0.012,0.034-0.032l0.366-0.339c0.024-0.019,0.037-0.035,0.065-0.058
		l0.113-0.091c0.014-0.012,0.017-0.016,0.027-0.026c0.033-0.037,0.024-0.037,0.066-0.071c0.067-0.056,0.112-0.125,0.174-0.185
		c0.017-0.051,0.039-0.056,0.071-0.078c0.136-0.09-0.016-0.165,0.274-0.193c0.014-0.022,0.014-0.029,0.026-0.052
		c0.034-0.061,0.165-0.198,0.194-0.217c0.163-0.106,0.001,0.026,0.1-0.088l0.078-0.084c0.063-0.077,0.108-0.059,0.174-0.178
		c0.032-0.057,0.021-0.014,0.067-0.069c0.087-0.101,0.06-0.03,0.12-0.084c0.063-0.058,0.019-0.086,0.122-0.149
		c0.101-0.062,0.002-0.046,0.145-0.126c0.072-0.04,0.017-0.01,0.058-0.078c0.05-0.005,0.064-0.005,0.095-0.022
		c-0.004-0.077,0.027-0.091,0.125-0.178l0.264-0.251c0.002-0.002,0.005-0.005,0.006-0.007l0.521-0.51
		c0.002-0.002,0.005-0.004,0.008-0.006l0.033-0.021c0.03-0.021,0.017-0.012,0.042-0.038l0.538-0.521
		c0.002-0.002,0.004-0.005,0.006-0.007l0.326-0.338c0.022-0.028,0.046-0.048,0.075-0.074l0.173-0.166
		c0.087-0.082,0.341-0.316,0.379-0.405l-1.16-1.104c-0.01-0.007-0.039-0.029-0.046-0.036l-0.51-0.48
		c-0.066-0.082-0.146-0.134-0.238-0.223c-0.088-0.085-0.524-0.49-0.532-0.525c-0.078-0.019-0.101,0.014-0.13,0.073
		c-0.042,0.087-0.062,0.069-0.116,0.143l-0.03,0.037c-0.042,0.033-0.022-0.004-0.066,0.043l-0.098,0.119
		c-0.037,0.043-0.006,0.014-0.059,0.048l-0.225,0.21c-0.021,0.02-0.033,0.04-0.052,0.057c-0.029,0.027-0.034,0.017-0.06,0.049
		c-0.02,0.025-0.014,0.03-0.045,0.063l-0.325,0.325c-0.035,0.037-0.084,0.06-0.131,0.086c-0.107,0.06-0.011,0.023-0.086,0.13
		l-0.078,0.083c-0.017,0.012-0.007,0.002-0.031,0.024C28.209,22.548,28.104,22.681,28.045,22.702z"/>
	<path fill-rule="evenodd" clip-rule="evenodd" d="M26.892,21.014c-0.217-0.005-0.207-0.036-0.212-0.096l-0.141-0.042
		c0.019-0.051,0.007,0.017,0.03-0.037c-0.071-0.006-0.116-0.025-0.212-0.023c-0.08,0.001-0.15,0.006-0.23,0.004
		c-0.152-0.003-0.308,0-0.461,0l-13.502-0.002c-0.032,0.001-0.07,0-0.098,0.011c-0.054,0.023-0.02,0.016-0.05,0.055
		c-0.298,0.004-0.222,0.023-0.263,0.103c-0.055,0.004-0.121-0.004-0.137,0.055c-0.001,0.003-0.002,0.007-0.003,0.01l-0.015,0.167
		c-0.005,0.019-0.004,0.012-0.016,0.036l-0.031,0.057c-0.057,0.075-0.054,0.275-0.027,0.376l0.018,0.046
		c0.064,0.033,0.062,0.001,0.099,0.081l0.014,0.029c0.038,0.054,0.045-0.011,0.043,0.094c0.124,0.01,0.078,0.073,0.183,0.092
		c0.038,0.007,0.087,0.006,0.12,0.018c0.052,0.018,0.045,0.082,0.051,0.067c0.001-0.002,0.003,0.008,0.006,0.011
		c0.297,0.008,0.609,0.002,0.908,0.002h6.344c0.005,0,7.161,0.021,7.232-0.018c0.025-0.027,0.011-0.024,0.024-0.038l0.078-0.059
		c0.002-0.002,0.005-0.005,0.007-0.006c0.116-0.102,0.085-0.056,0.205-0.083c0.038-0.067,0.053-0.167,0.078-0.232
		c0.051-0.13,0.081-0.129,0.084-0.207c0.011-0.237-0.013-0.166-0.051-0.216l-0.01-0.018c-0.004-0.008-0.006-0.018-0.012-0.029
		c-0.004-0.007-0.014-0.026-0.014-0.026C26.91,21.154,26.883,21.059,26.892,21.014z"/>
	<path fill-rule="evenodd" clip-rule="evenodd" d="M12.141,17.288c-0.011-0.001-0.061,0.015-0.088,0.024l-0.165,0.092
		c-0.008,0.002-0.09,0.003-0.117,0.004c-0.045,0.058,0.007,0.05-0.118,0.091l-0.016,0.014c-0.004,0.033-0.025,0.056-0.044,0.076
		l-0.063,0.128c-0.036,0.102,0.012,0.15-0.041,0.241c-0.018,0.031-0.009-0.031-0.014,0.032c-0.005,0.081-0.007,0.026,0.077,0.129
		c0.063,0.078,0.044,0,0.077,0.109c0.031,0.106,0.024,0.103,0.07,0.141c0.005,0.004,0.005,0.002,0.022,0.017
		c0.057,0.05-0.026,0.068,0.17,0.066c0.003,0.005,0.001,0.036,0.048,0.054c0.033,0.013,0.048,0.001,0.081,0.008
		c0.002,0,0.006,0.001,0.008,0.002c0.004,0,0.026,0.009,0.039,0.011l0.542,0.005c1.987,0.011,4.003,0,5.992,0
		c2.281,0,4.563,0.002,6.845,0.002l0.84-0.005c0.294,0.004,0.215-0.021,0.267-0.066l0.063-0.044
		c-0.01-0.032-0.017-0.033-0.018-0.054l0.05-0.002c0.047-0.012,0.075-0.03,0.167-0.032l0.037-0.051
		c0.03-0.027,0.026,0.01,0.045-0.052c0.013-0.044,0.011-0.105,0.026-0.151c0.019-0.059,0.051-0.063,0.069-0.107
		c0.019-0.045,0.003-0.116,0.004-0.18c-0.074-0.042-0.022,0.002-0.066-0.094l-0.041-0.108c-0.001-0.003-0.002-0.007-0.003-0.009
		l-0.018-0.071c-0.241-0.019-0.225,0.022-0.226-0.091l-0.03-0.016c-0.027-0.02-0.01,0.008-0.037-0.057
		c-0.049-0.121-0.107,0.021-0.11-0.106l-14.405-0.002C12.099,17.279,12.098,17.26,12.141,17.288z"/>
	<path fill-rule="evenodd" clip-rule="evenodd" d="M26.998,14.196c-0.041-0.023-0.046-0.012-0.063-0.052
		c-0.069-0.17,0.005-0.134-0.099-0.157c-0.147-0.033-0.021-0.015-0.107-0.077c-0.14-0.101-0.058-0.072-0.132-0.112
		c-0.084-0.045-0.036-0.008-0.057-0.074c-0.151-0.038-0.702-0.015-0.902-0.015h-2.725c-0.69,0-10.193,0.021-10.411-0.011
		c-0.104-0.015-0.345-0.006-0.424,0.023c-0.074,0.048,0.027,0.052-0.152,0.077c-0.089,0.013-0.109,0.008-0.197,0.033l-0.014,0.069
		c-0.011,0.001-0.049,0.007-0.052,0.007c-0.031,0.01-0.105,0.173-0.105,0.174c-0.01,0.042-0.012,0.062-0.032,0.092
		c-0.023,0.036-0.039,0.025-0.041,0.082c-0.005,0.153,0.05,0.239,0.086,0.327l0.009,0.033c0.025,0.065,0,0.008,0.033,0.04
		c0.002,0.002,0.006,0.004,0.008,0.007l0.02,0.026c0.066,0.103,0.061,0.013,0.108,0.153c0.023,0.071,0.043,0.098,0.122,0.086
		c0.074-0.012,0.161-0.008,0.238-0.002c0.319,0.024,0.672,0.013,1.004,0.013c3.036,0,6.073,0,9.109,0c1.243,0,2.556-0.013,3.795,0
		c0.03,0,0.093,0.005,0.118-0.006c0.063-0.026,0.011-0.021,0.044-0.076l0.054,0.002c0.036,0.061-0.026,0.042,0.047,0.07
		c0.062,0.023,0.284,0,0.345-0.012c0.011-0.102,0.039-0.043,0.045-0.155c0.088-0.016,0.096-0.005,0.109-0.092
		c0.032,0,0.064,0,0.084-0.009c0.066-0.03-0.004,0.025,0.065-0.116C26.99,14.42,26.998,14.347,26.998,14.196z"/>
	<path fill-rule="evenodd" clip-rule="evenodd" d="M11.908,24.427c-0.002,0.068-0.016,0.069-0.016,0.144
		c-0.084,0.001-0.134,0.025-0.23,0.038l-0.063,0.101c-0.015,0.027-0.004,0.024-0.022,0.058c-0.03,0.054-0.021-0.009-0.039,0.063
		c-0.023,0.092-0.012,0.271,0.023,0.357l0.041,0.095c0.049,0.12,0.044,0.042,0.067,0.118c0.043,0.142,0.022,0.095,0.062,0.119
		c0.042,0.026,0.035-0.013,0.094,0.086c0.116,0.005,0.19,0.032,0.297,0.037l11.699-0.001c0.208,0,1.123,0.008,1.166-0.025
		l0.009-0.021c0.039-0.086,0.037-0.029,0.071-0.081c0.032-0.047-0.015-0.017,0.043-0.072c0.082-0.078,0.008-0.044,0.067-0.084
		c0.048-0.033,0.037,0.004,0.077-0.072c0.018-0.033,0.045-0.016,0.082-0.04c0.048-0.031,0.019-0.027,0.042-0.079
		c0.029-0.009,0.083-0.018,0.112-0.029c0.037-0.014,0.02-0.003,0.063-0.065l0.012-0.017c0.061-0.098-0.037-0.036,0.154-0.117
		c0-0.022-0.002-0.033,0.006-0.054l0.024-0.039c0.021-0.036,0.01-0.042,0.064-0.064c0.028-0.011,0.049-0.017,0.074-0.022
		l0.004-0.152l0.094-0.032l0.012-0.065c0.094-0.005,0.167,0.007,0.154-0.095c-0.075-0.042-0.311-0.015-0.42-0.01
		c-0.091,0.004-0.126-0.002-0.204-0.013c-0.09-0.013-0.144,0-0.23,0H12.773c-0.15,0-0.297,0.001-0.447-0.002
		C12.199,24.39,12.038,24.418,11.908,24.427z"/>
	<path fill-rule="evenodd" clip-rule="evenodd" d="M31.677,19.21c-0.034,0.016-0.049,0.019-0.086,0.029l-0.163,0.103
		c-0.117,0.104-0.182,0.19-0.272,0.281l-0.115,0.118c-0.022,0.026-0.042,0.038-0.065,0.057c-0.002,0.002-0.006,0.004-0.008,0.006
		c-0.049,0.041-0.061,0.096-0.108,0.137l-0.189,0.202c-0.072,0.067-0.123,0.145-0.202,0.206c-0.003,0.002-0.013,0.01-0.016,0.012
		c-0.002,0.002-0.006,0.004-0.009,0.006c-0.002,0.002-0.006,0.004-0.008,0.005c-0.052,0.036-0.089,0.11-0.142,0.155
		c-0.05,0.043-0.037,0.077,0.007,0.128c0.058,0.069,0.135,0.117,0.204,0.176l0.582,0.569c0.091,0.083,0.284,0.301,0.363,0.356
		c0.08,0.056,0.115,0.104,0.185,0.167c0.012,0.011,0.015,0.016,0.026,0.027c0.002,0.002,0.005,0.005,0.007,0.007l0.09,0.074
		c0.119,0.105,0.161,0.21,0.33,0.323l0.137,0.131c0.002,0.002,0.005,0.005,0.007,0.007c0.001,0.002,0.004,0.005,0.006,0.007
		c0.029,0.032-0.001-0.004,0.024,0.029l0.243,0.248c0.078,0.068,0.135,0.182,0.241,0.063l0.102-0.1
		c0.003-0.002,0.012-0.01,0.015-0.012l0.195-0.159c0.151-0.136,0.545-0.558,0.671-0.63c0.074-0.042,0.18-0.155,0.241-0.22
		c0.02-0.021,0.036-0.04,0.052-0.067l0.069-0.177c0.035-0.131-0.027-0.307-0.078-0.383c-0.019-0.028-0.026-0.031-0.047-0.062
		c-0.062-0.09-0.149-0.155-0.227-0.234l-1.121-1.059c-0.002-0.002-0.006-0.004-0.008-0.006c-0.088-0.064-0.107-0.125-0.16-0.166
		l-0.116-0.102c-0.101-0.102-0.209-0.188-0.339-0.241c-0.082-0.033-0.182-0.035-0.27-0.025
		C31.667,19.203,31.689,19.205,31.677,19.21z"/>
	<path fill-rule="evenodd" clip-rule="evenodd" d="M23.279,27.53c-0.018,0.021-0.034,0.049-0.043,0.072l-0.154,0.525
		c-0.019,0.041-0.008,0.042-0.017,0.091c-0.014,0.078-0.017,0.029-0.038,0.083c-0.009,0.023-0.011,0.057-0.021,0.088l-0.078,0.275
		c-0.012,0.069-0.017,0.041-0.035,0.073c-0.008,0.014-0.047,0.248-0.094,0.356c-0.078,0.182,0.05,0.193,0.146,0.273
		c0.104,0.086,0.021,0.053,0.121,0.122l0.18,0.147c0.013,0.013,0.013,0.013,0.027,0.026c0.056,0.047,0.118,0.076,0.157,0.13
		c0.038,0.054,0.002,0.029,0.045,0.059l0.095,0.069c0.002,0.002,0.005,0.004,0.007,0.006l0.589,0.482
		c0.049,0.04,0.07,0.081,0.148,0.038c0.073-0.04,0.068-0.025,0.154-0.077c0.083-0.05,0.092-0.039,0.14-0.076
		c0.118-0.093,0.104-0.048,0.299-0.161l0.335-0.178c0.113-0.058,0.471-0.212,0.567-0.274c0.005-0.069-0.004-0.065-0.049-0.093
		l-0.213-0.167c-0.104-0.104-0.157-0.129-0.196-0.169l-0.232-0.201c-0.17-0.121-0.55-0.466-0.551-0.467l-0.17-0.128
		c-0.047-0.034-0.157-0.156-0.233-0.213l-0.32-0.264C23.746,27.893,23.356,27.546,23.279,27.53z"/>
	<path fill-rule="evenodd" clip-rule="evenodd" d="M22.237,30.926c0.24,0.007,0.129-0.035,0.31-0.04
		c0.132-0.004,0.197-0.034,0.312-0.043l0.534-0.073c0.031-0.01,0.034-0.016,0.053-0.033c-0.008-0.066,0.002-0.018-0.049-0.076
		l-0.11-0.108c-0.194-0.201-0.224-0.192-0.401-0.357l-0.222-0.212c-0.021-0.02-0.035-0.034-0.057-0.051
		c-0.044-0.035-0.006-0.029-0.09-0.027c-0.018,0.055-0.018,0.068-0.042,0.121l-0.178,0.637
		C22.26,30.734,22.229,30.833,22.237,30.926z"/>
</g>
</svg>
