<?xml version="1.0" encoding="utf-8"?>
<!-- Generator: Adobe Illustrator 16.0.0, SVG Export Plug-In . SVG Version: 6.00 Build 0)  -->
<!DOCTYPE svg PUBLIC "-//W3C//DTD SVG 1.1//EN" "http://www.w3.org/Graphics/SVG/1.1/DTD/svg11.dtd">
<svg version="1.1" id="Layer_1" xmlns="http://www.w3.org/2000/svg" xmlns:xlink="http://www.w3.org/1999/xlink" x="0px" y="0px"
	 width="40px" height="40px" viewBox="0 0 40 40" enable-background="new 0 0 40 40" xml:space="preserve">
<g>
	<g>
		<path fill-rule="evenodd" clip-rule="evenodd" d="M5.827,5.846h13.115V18.96H5.827V5.846L5.827,5.846z M7.817,7.836v9.09h9.09
			v-9.09H7.817z"/>
		<rect x="10.033" y="10.052" fill-rule="evenodd" clip-rule="evenodd" width="4.749" height="4.749"/>
	</g>
	<g>
		<path fill-rule="evenodd" clip-rule="evenodd" d="M21.059,5.846h13.115V18.96H21.059V5.846L21.059,5.846z M23.049,7.836v9.09
			h9.089v-9.09H23.049z"/>
		<rect x="25.265" y="10.052" fill-rule="evenodd" clip-rule="evenodd" width="4.748" height="4.749"/>
	</g>
	<g>
		<path fill-rule="evenodd" clip-rule="evenodd" d="M5.827,21.041h13.115v13.115H5.827V21.041L5.827,21.041z M7.817,23.03v9.09h9.09
			v-9.09H7.817z"/>
		<rect x="10.033" y="25.246" fill-rule="evenodd" clip-rule="evenodd" width="4.749" height="4.749"/>
	</g>
	<polygon fill-rule="evenodd" clip-rule="evenodd" points="23.871,21.357 26.177,21.357 26.177,23.596 28.416,23.596 28.416,25.902 
		26.177,25.902 26.177,28.141 23.871,28.141 23.871,25.902 21.632,25.902 21.632,23.596 23.871,23.596 	"/>
	<polygon fill-rule="evenodd" clip-rule="evenodd" points="28.778,26.332 31.084,26.332 31.084,28.57 33.322,28.57 33.322,30.876 
		31.084,30.876 31.084,33.115 28.778,33.115 28.778,30.876 26.539,30.876 26.539,28.57 28.778,28.57 	"/>
	<polygon fill-rule="evenodd" clip-rule="evenodd" points="21.248,28.12 23.641,28.12 23.641,31.15 26.539,31.15 26.539,33.23 
		21.248,33.23 	"/>
	<polygon fill-rule="evenodd" clip-rule="evenodd" points="33.993,26.353 31.6,26.353 31.6,23.323 28.702,23.323 28.702,21.242 
		33.993,21.242 	"/>
</g>
</svg>
