<?xml version="1.0" encoding="utf-8"?>
<!-- Generator: Adobe Illustrator 16.0.0, SVG Export Plug-In . SVG Version: 6.00 Build 0)  -->
<!DOCTYPE svg PUBLIC "-//W3C//DTD SVG 1.1//EN" "http://www.w3.org/Graphics/SVG/1.1/DTD/svg11.dtd">
<svg version="1.1" id="Layer_1" xmlns="http://www.w3.org/2000/svg" xmlns:xlink="http://www.w3.org/1999/xlink" x="0px" y="0px"
	 width="40px" height="40px" viewBox="0 0 40 40" enable-background="new 0 0 40 40" xml:space="preserve">
<g>
	<path fill-rule="evenodd" clip-rule="evenodd" d="M32.956,6.981c-3.372-3.369-8.031-5.454-13.178-5.454
		c-1.417,0-2.792,0.156-4.107,0.452c-1.357,0.305-2.662,0.76-3.893,1.346l-0.357,0.17l-1.53-1.514L8.018,7.688L13.71,5.76
		l-1.498-1.481l0.785-0.327c1.055-0.439,2.161-0.779,3.304-1.007c1.118-0.222,2.271-0.338,3.45-0.338
		c4.853,0,9.247,1.967,12.428,5.146c3.183,3.18,5.151,7.573,5.151,12.423c0,0.898-0.068,1.782-0.198,2.646
		c-0.111,0.736-0.27,1.46-0.471,2.167l0.938,0.618c0.232-0.757,0.417-1.536,0.552-2.333c0.171-1.012,0.261-2.057,0.261-3.125
		C38.411,15.005,36.326,10.35,32.956,6.981z"/>
	<path fill-rule="evenodd" clip-rule="evenodd" d="M7.044,33.018c3.372,3.37,8.031,5.454,13.178,5.454
		c1.417,0,2.792-0.157,4.107-0.453c1.357-0.305,2.662-0.76,3.894-1.346l0.356-0.17l1.53,1.514l1.873-5.706l-5.691,1.927l1.498,1.482
		l-0.785,0.327c-1.055,0.44-2.161,0.779-3.304,1.007c-1.118,0.222-2.272,0.339-3.451,0.339c-4.853,0-9.247-1.967-12.428-5.146
		c-3.182-3.181-5.151-7.573-5.151-12.423c0-0.898,0.068-1.782,0.199-2.646c0.111-0.735,0.269-1.459,0.471-2.167l-0.937-0.617
		c-0.232,0.757-0.417,1.536-0.552,2.332c-0.171,1.012-0.261,2.057-0.261,3.125C1.588,24.994,3.673,29.65,7.044,33.018z"/>
	<polygon fill-rule="evenodd" clip-rule="evenodd" points="16.87,11.587 22.297,11.587 22.297,17.379 28.093,17.379 28.093,22.803 
		22.297,22.803 22.297,28.595 16.87,28.595 16.87,22.803 11.074,22.803 11.074,17.379 16.87,17.379 	"/>
</g>
</svg>
