<?xml version="1.0" encoding="utf-8"?>
<!-- Generator: Adobe Illustrator 16.0.0, SVG Export Plug-In . SVG Version: 6.00 Build 0)  -->
<!DOCTYPE svg PUBLIC "-//W3C//DTD SVG 1.1//EN" "http://www.w3.org/Graphics/SVG/1.1/DTD/svg11.dtd">
<svg version="1.1" id="Layer_1" xmlns="http://www.w3.org/2000/svg" xmlns:xlink="http://www.w3.org/1999/xlink" x="0px" y="0px"
	 width="40px" height="40px" viewBox="0 0 40 40" enable-background="new 0 0 40 40" xml:space="preserve">
<path fill-rule="evenodd" clip-rule="evenodd" fill="#000000" d="M8.74,27.558l3.911,3.912l-1.872,1.871l-0.618-0.618l-0.96,0.959l-2.75-2.75
	l0.96-0.959l-0.619-0.619l1.872-1.871L8.74,27.558L8.74,27.558z M11.448,31.479L8.639,28.67l-0.695,0.695l0.607,0.606l-0.9,0.901
	l1.579,1.58l0.901-0.901l0.622,0.622L11.448,31.479L11.448,31.479z M7.143,32.602l-0.077-0.076L0.74,38.852l0.54,0.539
	c2.113-2.102,4.217-4.216,6.325-6.324L7.143,32.602L7.143,32.602z M30.307,9.632l0.906,0.91l3.115-3.113
	c-0.61-0.601-1.215-1.207-1.824-1.808l-3.1,3.1L30.307,9.632L30.307,9.632z M33.377,14.329c0.842,1.066,1.224,1.865,0.828,2.262
	c-0.397,0.397-1.196,0.015-2.262-0.827c-1.108-0.875-2.488-2.244-4.005-3.762l-0.904-0.898c-2.579-2.556-4.546-4.507-3.685-5.369
	c0.862-0.861,2.812,1.105,5.367,3.684l0.9,0.905C31.133,11.841,32.502,13.221,33.377,14.329L33.377,14.329z M37.877,7.688
	c0.6,0.762,0.873,1.33,0.595,1.607c-0.278,0.278-0.847,0.004-1.607-0.595c-0.803-0.632-1.802-1.624-2.902-2.724l-0.66-0.656
	c-1.855-1.839-3.271-3.242-2.658-3.854c0.611-0.612,2.015,0.804,3.854,2.661l0.655,0.659C36.253,5.884,37.244,6.883,37.877,7.688
	L37.877,7.688z M22.324,12.172l2.876,2.875l-0.54,0.54l-2.876-2.877l-0.894,0.893l2.876,2.876l-0.539,0.54l-2.876-2.876
	l-0.893,0.893l2.876,2.875l-0.54,0.54l-2.876-2.876l-0.893,0.893l2.876,2.875l-0.539,0.54l-2.876-2.876l-0.893,0.893l2.876,2.876
	l-0.54,0.54l-2.876-2.877l-0.893,0.893l2.876,2.876l-0.539,0.54l-2.876-2.876l-0.893,0.893l2.876,2.876l-0.54,0.54l-2.876-2.876
	l-0.893,0.893l2.875,2.875l-0.539,0.54l-2.876-2.875L8.655,25.84l5.443,5.442l15.914-15.914c-0.413-0.373-0.846-0.782-1.293-1.217
	c-0.488-0.475-0.976-0.96-1.474-1.458l-0.97-0.962c-0.627-0.619-1.222-1.206-1.751-1.76L22.324,12.172L22.324,12.172z
	 M30.669,15.941c0.848,0.713,1.619,1.244,2.293,1.494c0.722,0.267,1.336,0.217,1.82-0.267c0.642-0.642,0.522-1.51-0.09-2.555
	c-0.579-0.988-1.604-2.143-2.837-3.415l3.133-3.133C35.81,8.838,36.556,9.46,37.2,9.798c0.699,0.367,1.287,0.406,1.734-0.042
	c0.568-0.569,0.351-1.362-0.323-2.322c-0.646-0.922-1.718-2.007-2.909-3.197l-0.704-0.709c-2.067-2.094-3.645-3.692-4.815-2.522
	c-0.516,0.516-0.491,1.119-0.117,1.811c0.345,0.638,0.995,1.356,1.786,2.156l-3.096,3.096c-1.246-1.256-2.354-2.327-3.328-2.92
	c-1.029-0.628-1.913-0.733-2.657,0.01c-0.559,0.558-0.637,1.2-0.373,1.924c0.247,0.677,0.8,1.427,1.537,2.251L7.521,25.746
	c2.229,2.218,4.448,4.447,6.671,6.67L30.669,15.941z"/>
</svg>
