<?xml version="1.0" encoding="utf-8"?>
<!-- Generator: Adobe Illustrator 16.0.0, SVG Export Plug-In . SVG Version: 6.00 Build 0)  -->
<!DOCTYPE svg PUBLIC "-//W3C//DTD SVG 1.1//EN" "http://www.w3.org/Graphics/SVG/1.1/DTD/svg11.dtd">
<svg version="1.1" id="Layer_1" xmlns="http://www.w3.org/2000/svg" xmlns:xlink="http://www.w3.org/1999/xlink" x="0px" y="0px"
	 width="38.399px" height="38.4px" viewBox="0 0 38.399 38.4" enable-background="new 0 0 38.399 38.4" xml:space="preserve">
<g>
	<path fill-rule="evenodd" clip-rule="evenodd" fill="#FFFFFF" d="M19.199,22.035c1.562,0,2.835-1.273,2.835-2.834
		c0-1.562-1.273-2.835-2.835-2.835c-1.561,0-2.834,1.273-2.834,2.835C16.365,20.761,17.639,22.035,19.199,22.035z"/>
	<path fill-rule="evenodd" clip-rule="evenodd" fill="#FFFFFF" d="M19.199,31.795c1.562,0,2.835-1.273,2.835-2.834
		c0-1.562-1.273-2.835-2.835-2.835c-1.561,0-2.834,1.273-2.834,2.835C16.365,30.522,17.639,31.795,19.199,31.795z"/>
	<path fill-rule="evenodd" clip-rule="evenodd" fill="#FFFFFF" d="M19.199,11.99c1.562,0,2.835-1.273,2.835-2.834
		c0-1.562-1.273-2.835-2.835-2.835c-1.561,0-2.834,1.273-2.834,2.835C16.365,10.717,17.639,11.99,19.199,11.99z"/>
</g>
</svg>
